<?xml version="1.0" encoding="iso-8859-1"?>
<!-- Generator: Adobe Illustrator 16.0.0, SVG Export Plug-In . SVG Version: 6.00 Build 0)  -->
<!DOCTYPE svg PUBLIC "-//W3C//DTD SVG 1.1//EN" "http://www.w3.org/Graphics/SVG/1.1/DTD/svg11.dtd">
<svg version="1.1" xmlns="http://www.w3.org/2000/svg" xmlns:xlink="http://www.w3.org/1999/xlink" x="0px" y="0px"
	 width="29.026px" height="24.843px" viewBox="0 0 29.026 24.843" style="enable-background:new 0 0 29.026 24.843;"
	 xml:space="preserve">
<g id="images_-_copie">
	<path style="fill:#FF0000;" d="M9.057,9.042c0.03-0.032-0.003-0.123-0.01-0.163C9.028,8.788,9.01,8.698,8.991,8.606
		c-0.026-0.123-0.052-0.246-0.077-0.37c-0.031-0.15-0.061-0.301-0.093-0.451C8.787,7.614,8.751,7.443,8.715,7.272
		C8.677,7.085,8.64,6.898,8.602,6.712C8.56,6.516,8.52,6.32,8.481,6.124c-0.042-0.2-0.084-0.401-0.124-0.6
		C8.316,5.326,8.275,5.127,8.234,4.929c-0.04-0.19-0.077-0.381-0.117-0.571C8.081,4.181,8.044,4.004,8.007,3.827
		C7.976,3.669,7.943,3.512,7.911,3.354C7.883,3.222,7.856,3.09,7.83,2.956C7.809,2.855,7.788,2.752,7.767,2.651
		C7.761,2.646,7.761,2.62,7.758,2.613C7.755,2.597,7.752,2.582,7.749,2.568C7.747,2.554,7.742,2.54,7.741,2.526
		c-0.001-0.01,0.003-0.021-0.007-0.03C7.73,2.493,7.699,2.494,7.691,2.493C7.677,2.491,7.667,2.49,7.654,2.49
		c-0.024,0-0.041-0.005-0.056,0.015C7.586,2.519,7.573,2.526,7.56,2.538C7.541,2.555,7.522,2.574,7.504,2.593
		C7.463,2.634,7.421,2.676,7.38,2.717C7.282,2.815,7.187,2.911,7.09,3.006C6.994,3.103,6.896,3.201,6.8,3.297
		C6.723,3.374,6.648,3.45,6.57,3.526C6.535,3.562,6.499,3.598,6.463,3.634C6.461,3.636,6.461,3.636,6.46,3.637
		C6.453,3.643,4.864,2.05,4.755,1.898C4.562,1.626,4.271,1.476,4.046,1.241C3.841,1.029,3.638,0.813,3.428,0.604
		C3.253,0.43,3.104,0.231,2.916,0.071C2.775-0.05,2.737-0.001,2.625,0.107C2.473,0.256,2.323,0.409,2.172,0.56
		C1.748,0.984,1.324,1.409,0.899,1.833c-0.021,0.02-0.041,0.041-0.063,0.062C0.794,1.938,0.751,1.981,0.708,2.024
		C0.652,2.079,0.598,2.134,0.542,2.19C0.481,2.25,0.422,2.31,0.362,2.37C0.305,2.426,0.25,2.481,0.193,2.538
		c-0.042,0.044-0.086,0.088-0.13,0.131c-0.01,0.01-0.02,0.02-0.029,0.03C0.023,2.708,0.01,2.718,0,2.729
		c0.003,0.005,0.001,0.012,0.003,0.016C0.01,2.758,0.024,2.77,0.035,2.78c0.007,0.007,0.014,0.015,0.022,0.022
		C0.075,2.821,0.094,2.84,0.114,2.858c0.023,0.024,0.047,0.048,0.072,0.073C0.215,2.96,0.245,2.989,0.273,3.019
		c0.034,0.033,0.067,0.067,0.101,0.1C0.413,3.158,0.45,3.196,0.488,3.233c0.318,0.318,0.63,0.649,0.951,0.97
		c0.162,0.162,0.331,0.318,0.497,0.475c0.107,0.1,0.214,0.202,0.318,0.303c0.193,0.191,0.373,0.389,0.565,0.583
		c0.048,0.048,0.094,0.094,0.141,0.141c0.043,0.044,0.088,0.088,0.131,0.131c0.041,0.042,0.082,0.082,0.122,0.123
		c0.037,0.036,0.074,0.072,0.111,0.11c0.032,0.032,0.065,0.064,0.098,0.098C3.449,6.194,3.477,6.222,3.505,6.25
		C3.527,6.272,3.55,6.296,3.574,6.318C3.59,6.336,3.607,6.354,3.626,6.371C3.637,6.382,3.648,6.394,3.66,6.405
		c0.005,0.005,0.01,0.01,0.016,0.017C3.504,6.593,3.332,6.765,3.161,6.936c-0.125,0.125-0.25,0.25-0.375,0.375
		C2.731,7.366,2.669,7.417,2.63,7.483c-0.03,0.051-0.114,0.12-0.059,0.18C2.602,7.695,2.643,7.697,2.684,7.71
		c0.136,0.044,0.262,0.097,0.402,0.125c0.143,0.03,0.285,0.06,0.428,0.089C3.68,7.958,3.846,7.992,4.012,8.026
		c0.204,0.042,0.408,0.09,0.611,0.139c0.442,0.105,0.88,0.213,1.333,0.263c0.333,0.038,0.666,0.153,0.99,0.197
		C7.3,8.673,7.641,8.772,7.993,8.844c0.14,0.03,0.284,0.059,0.424,0.087C8.528,8.955,8.641,8.977,8.752,9
		C8.795,9.009,8.837,9.018,8.88,9.027C8.897,9.03,8.916,9.034,8.934,9.038c0.032,0.008,0.088,0.027,0.118,0.008
		C9.053,9.044,9.055,9.044,9.057,9.042z"/>
	<path style="fill:#FF0000;" d="M25.973,11.722l-6.492-3.21c-0.132-0.065-0.361-0.119-0.509-0.119h-2.866
		c-0.148,0-0.376,0.054-0.509,0.119l-6.492,3.21l-3.054,1.509v0.268v2.254v0.269l3.365-0.761l6.16-1.392
		c0.144-0.031,0.382-0.059,0.53-0.059h2.866c0.147,0,0.268,0,0.268,0s0.118,0.028,0.262,0.059l6.16,1.392l3.365,0.761v-0.269v-2.254
		v-0.268L25.973,11.722z"/>
	<path style="fill:#391994;" d="M21.555,22.283l-2.103-2.704c-0.017-0.021-0.038-0.041-0.061-0.061V2.234
		c0-1.228-0.83-2.223-1.853-2.223c-1.024,0-1.853,0.995-1.853,2.223v17.331c-0.007,0.008-0.015,0.018-0.021,0.026l-1.787,2.68
		c-0.082,0.123-0.148,0.344-0.148,0.491v1.895c0,0.148,0.109,0.219,0.244,0.158l3.333-1.515c0.134-0.061,0.356-0.065,0.491-0.007
		l3.674,1.53c0.136,0.057,0.247-0.018,0.247-0.166v-1.895C21.719,22.616,21.645,22.4,21.555,22.283z"/>
</g>
<g id="noms">
</g>
</svg>
